<?xml version="1.0" encoding="UTF-8" standalone="no"?>
<!-- Created with Inkscape (http://www.inkscape.org/) -->

<svg
   width="107.58532mm"
   height="107.58535mm"
   viewBox="0 0 107.58532 107.58535"
   version="1.1"
   id="svg2834"
   xmlns="http://www.w3.org/2000/svg"
   xmlns:svg="http://www.w3.org/2000/svg">
  <defs
     id="defs2831" />
  <g
     id="layer1"
     transform="translate(-74.66543,-59.664389)">
    <path
       id="path2976"
       style="fill:#79cda4;stroke-width:0.98039;paint-order:markers stroke fill"
       d="m 128.77157,61.044693 c -29.050552,-4.4e-5 -52.600766,23.690481 -52.600995,52.914387 -4e-5,29.2241 23.550253,52.91492 52.600995,52.91488 29.05075,5e-5 51.18169,-29.3682 51.18165,-58.5923 -2.32114,-28.972998 -22.1311,-47.237013 -51.18165,-47.236967 z" />
    <g
       id="g2818"
       transform="matrix(1.5369333,0,0,1.5369333,74.665429,59.664107)">
      <path
         d="m 37.789861,61.144392 c 1.184295,-1.180312 0,-3.541036 -1.184396,-4.721348 -1.184395,-1.180312 -5.21158,3.068971 -3.553286,4.721348 1.184395,1.180312 3.553286,1.180312 4.737682,0 z m 17.411034,-16.76095 c 1.184395,-3.541036 5.922177,-4.721348 3.553286,-7.082072 -2.368891,-2.360723 -7.106573,0 -8.290968,0 -2.60569,0 -3.553287,4.721348 -5.922178,3.541036 -2.368891,-1.180312 -4.737682,1.180312 -2.368891,2.360724 2.368891,1.180312 4.737682,2.360724 5.922178,3.541036 1.184495,1.180312 5.922177,1.180312 7.106573,-2.360724 z M 69.058742,30.219299 c 0.236899,1.534386 0.355299,3.068871 0.355299,4.721348 0,18.885391 -15.397542,34.230046 -34.34847,34.230046 -4.619283,-2.832888 -10.896759,-7.436245 -8.290969,-13.573987 3.553287,-8.262384 0,-10.623108 -1.184395,-11.80342 -1.184296,-1.180212 -3.553287,-1.180212 -2.368891,-4.721248 1.184395,-3.541036 3.553286,-2.360824 3.553286,-8.262583 0,-5.90176 -9.475464,-4.721348 -8.290968,-1.180312 1.184395,3.541036 -1.184296,8.262383 -5.922178,11.803419 C 7.823684,44.973598 6.6394385,35.530803 9.0081995,33.170179 10.666463,31.517702 5.3365234,30.691463 0.954041,30.927645 L 1.6646973,26.678363 C 5.3365234,11.805873 18.957432,0.710693 35.065671,0.710693 c 2.842689,0 5.685278,0.3541006 8.409568,1.0623078 -0.710697,3.3049236 1.658194,4.7213379 1.658194,5.9017695 0,1.1804417 0,7.0820817 -2.368891,7.0820817 -2.368891,0 -8.290969,3.541036 -5.922178,7.082072 2.368891,3.541036 3.553287,8.262383 5.922178,7.082071 2.368891,-1.180312 4.263984,-8.380474 5.922177,-8.262383 4.145585,0.236082 4.145585,6.137742 6.514376,7.318154 1.658193,0.826238 8.646267,0 13.02875,-1.88846 z"
         fill="#b5bdbf"
         id="path2"
         style="stroke-width:0.998271" />
      <path
         d="m 34.9408,70.0002 c -0.1184,0 -0.2369,0 -0.3553,-0.1184 -3.4349,-2.132 -11.4889,-7.3436 -8.5279,-14.3316 3.0796,-7.225 0.5923,-9.5939 -0.7106,-10.8968 -0.1184,-0.1184 -0.237,-0.237 -0.3554,-0.3554 -0.2369,-0.2369 -0.5922,-0.4737 -0.9476,-0.5922 -1.0659,-0.7107 -2.6057,-1.5398 -1.5397,-4.7377 0.4737,-1.5397 1.1844,-2.2504 1.7766,-2.8427 0.9476,-0.9476 1.6583,-1.7766 1.6583,-5.2115 0,-1.8951 -1.066,-2.7243 -2.0136,-3.198 -1.6582,-0.7106 -3.9086,-0.3553 -4.7377,0.4737 -0.4737,0.3554 -0.5922,0.8291 -0.3553,1.303 1.3029,3.7902 -1.1844,8.7648 -6.159,12.5549 -2.369,1.7767 -3.79033,0.5923 -4.26406,-0.1184 -1.77665,-2.132 -1.89504,-7.3435 0,-9.1202 0.1184,-0.1184 0.11837,-0.1184 0.11837,-0.1184 -0.23693,-0.4737 -3.31636,-1.1844 -7.22499,-1.066 -0.1184,1.1844 -0.1184,2.2504 -0.1184,3.435 0,15.5161 10.54148,29.0186 25.58378,32.8087 0.3553,0.1184 0.4737,0.3553 0.4737,0.7106 -0.1184,0.3554 -0.3553,0.4738 -0.7107,0.4738 C 10.8968,65.144 0,51.2861 0,35.1778 0,33.7565 0.118401,32.4536 0.236937,31.1508 v -0.1184 c 0,-0.1184 0.118401,-0.1184 0.118401,-0.2369 0.118397,-0.1184 0.118401,-0.1184 0.236937,-0.1184 h 0.118401 c 2.250374,-0.1184 8.054194,0 8.883244,1.7766 0.1184,0.237 0.23693,0.8291 -0.35534,1.4214 -1.42131,1.4213 -1.30291,5.9222 0.11841,7.4619 0.23693,0.2369 0.94761,1.1844 2.72421,-0.1184 4.5009,-3.4349 6.8697,-7.9357 5.6853,-11.1336 -0.3553,-0.9476 -0.1184,-1.8951 0.7106,-2.6057 1.4214,-1.1844 4.0271,-1.5398 6.0406,-0.7107 1.7767,0.7107 2.7243,2.2504 2.7243,4.264 0,3.9086 -1.066,4.9746 -2.0136,6.0406 -0.5922,0.5922 -1.1844,1.1844 -1.5397,2.4873 -0.7107,2.2504 0,2.6057 1.066,3.3163 0.3553,0.237 0.829,0.4738 1.1844,0.8291 0.1184,0.1184 0.2369,0.1184 0.2369,0.2369 1.4213,1.303 4.5009,4.1456 1.066,12.1996 -2.2504,5.33 2.7242,9.4756 7.9356,12.7919 18.4772,-0.1184 33.638,-15.1608 33.638,-33.7563 0,-1.5397 -0.1184,-3.198 -0.3553,-4.6193 0,-0.3553 0.2369,-0.5923 0.4737,-0.7107 0.3553,0 0.5923,0.237 0.7107,0.4738 C 69.8816,31.8615 70,33.5197 70,35.178 69.8816,54.3657 54.2471,70.0002 34.9408,70.0002 Z m 0.3554,-7.225 c -1.066,0 -2.132,-0.3553 -2.8427,-1.066 -1.1843,-1.1844 -0.3553,-3.3164 1.066,-4.6193 0.4738,-0.4737 1.066,-0.9476 1.5397,-1.066 0.9476,-0.3553 1.5398,0 1.7767,0.2369 1.4213,1.4214 2.7242,4.0271 1.1844,5.5669 -0.5921,0.5922 -1.6581,0.9475 -2.7241,0.9475 z m 0.7107,-5.8038 c -0.237,0 -0.8291,0.2369 -1.5398,0.9476 -0.5922,0.5922 -0.9476,1.1843 -1.1844,1.7766 -0.2369,0.5923 -0.1184,0.9476 0.1184,1.1844 0.9476,0.9476 2.9611,0.9476 3.9087,0 0.829,-0.8291 -0.1184,-2.8426 -1.1844,-3.9086 z m 14.3315,-8.7647 c -1.1843,0 -2.2503,-0.3554 -2.8426,-0.8291 -1.066,-1.066 -3.4349,-2.2504 -5.8037,-3.4349 -0.5922,-0.2369 -0.9476,-0.7107 -1.1843,-1.066 -0.237,-0.4737 -0.237,-0.9476 0,-1.4213 0.5922,-1.066 2.3689,-1.7767 4.027,-0.9476 0.7106,0.3553 1.3029,-0.1184 2.2504,-1.3029 0.829,-1.066 1.895,-2.2504 3.3163,-2.2504 0.2369,0 0.7107,-0.1184 1.303,-0.3553 2.0135,-0.5923 5.4483,-1.5398 7.4619,0.4737 0.5922,0.5923 0.829,1.1844 0.829,1.7766 0,1.066 -0.829,1.7767 -1.7766,2.7243 -0.9476,0.829 -2.0136,1.895 -2.3689,3.1979 -0.5923,1.6583 -1.8951,2.8427 -3.7903,3.3164 -0.3552,0.1186 -0.9474,0.1186 -1.4212,0.1186 z m -7.2249,-6.9883 c -0.7107,0 -1.1844,0.3554 -1.4214,0.7107 -0.1184,0.1184 -0.1184,0.2369 0,0.3553 0.1184,0.237 0.3554,0.3554 0.5923,0.4738 2.4873,1.1844 4.8562,2.3689 6.0406,3.6717 0.4737,0.4737 1.895,0.7106 3.198,0.3553 0.829,-0.2369 2.3689,-0.8291 2.961,-2.4873 0.5923,-1.6583 1.7767,-2.8427 2.7243,-3.6717 0.7106,-0.7107 1.4213,-1.4213 1.4213,-1.8951 0,-0.2369 -0.1184,-0.5922 -0.4738,-0.829 -1.5397,-1.5397 -4.3823,-0.7107 -6.2775,-0.237 -0.7107,0.237 -1.3029,0.3554 -1.6583,0.3554 -0.9476,0 -1.6582,0.829 -2.4873,1.7766 -0.9475,1.066 -2.0135,2.4873 -3.6716,1.6583 -0.237,-0.1186 -0.5923,-0.237 -0.9476,-0.237 z m -1.303,-11.4889 c -1.6582,0 -2.7242,-2.132 -3.7902,-4.3824 -0.5923,-1.0659 -1.1844,-2.2503 -1.7767,-3.1979 -0.829,-1.1844 -0.829,-2.6057 -0.1184,-3.9087 1.3029,-2.3689 4.8563,-4.1455 6.5144,-4.1455 0.829,0 1.7766,-1.6583 1.7766,-6.51435 0,-0.23693 -0.2369,-0.59227 -0.4737,-1.066 C 43.3503,5.56706 42.5212,4.14574 42.7581,2.1323 40.2708,1.54003 37.6651,1.18472 35.0592,1.18472 19.5431,1.18458 6.04062,11.7261 2.25053,26.7683 2.13213,27.1237 1.89518,27.242 1.53985,27.242 1.18452,27.1237 1.06615,26.8867 1.06615,26.5314 4.97464,10.897 18.8325,1.83105e-4 34.9408,1.83105e-4 c 2.8427,0 5.8037,0.355336895 8.528,1.065996895 0.3553,0.1184 0.4737,0.35533 0.4737,0.71066 -0.4737,1.89505 0.3553,3.07956 0.9476,4.14555 0.3553,0.59227 0.7106,1.066 0.7106,1.65826 0,5.09305 -0.9475,7.69885 -2.961,7.69885 -1.4213,0 -4.5009,1.5397 -5.5669,3.5533 -0.4737,0.9476 -0.4737,1.7767 0.1184,2.7242 0.7107,1.066 1.3029,2.2504 1.8951,3.3164 1.4213,2.8427 2.2504,4.027 3.3164,3.5533 1.066,-0.4737 2.1319,-2.7242 2.961,-4.3823 1.066,-2.2504 2.0136,-3.9087 3.1979,-3.9087 2.8427,0.1184 4.0271,2.6057 4.9747,4.6193 0.5922,1.1844 1.066,2.3689 1.895,2.7243 1.303,0.7106 7.5804,0 12.0813,-1.6583 C 64.6701,15.99 57.3267,7.81745 47.8511,3.90882 47.4958,3.79042 47.3774,3.43509 47.4958,3.07976 47.6142,2.72443 47.9696,2.60602 48.3249,2.72442 58.3925,6.86998 65.973,15.5163 68.8156,25.9393 v 0.1184 c 0,0.1184 0,0.1184 0,0.2369 0,0.1184 -0.1184,0.1184 -0.1184,0.2369 l -0.1185,0.1184 c -4.3824,1.8951 -11.6075,2.8427 -13.5026,1.8951 -1.1844,-0.5923 -1.7766,-1.8951 -2.3689,-3.3164 -0.829,-1.895 -1.7766,-3.7902 -3.9086,-3.9086 -0.4737,0 -1.5397,2.132 -2.132,3.3163 -1.066,2.132 -2.132,4.264 -3.5533,4.9747 -0.5921,0 -0.9474,0.1185 -1.3028,0.1185 z"
         fill="#51565f"
         id="path4" />
    </g>
  </g>
</svg>
