<svg width="406.622" height="406.622" viewBox="0 0 107.585 107.585" xmlns="http://www.w3.org/2000/svg"><path d="M54.106 1.38c-29.05 0-52.6 23.69-52.6 52.915 0 29.224 23.55 52.915 52.6 52.915s51.182-29.369 51.182-58.593C102.967 19.644 83.157 1.38 54.106 1.38z" fill="#79cda4" paint-order="markers stroke fill"/><path d="M58.08 93.975c1.82-1.814 0-5.443-1.82-7.257s-8.01 4.717-5.461 7.257c1.82 1.814 5.461 1.814 7.281 0zm26.76-25.76c1.82-5.443 9.102-7.257 5.461-10.886-3.64-3.628-10.922 0-12.742 0-4.005 0-5.462 7.257-9.102 5.443-3.641-1.814-7.282 1.814-3.641 3.628 3.64 1.814 7.281 3.628 9.102 5.442 1.82 1.814 9.102 1.814 10.922-3.628zm21.299-21.77c.364 2.358.546 4.716.546 7.256 0 29.026-23.665 52.61-52.792 52.61-7.1-4.355-16.747-11.43-12.742-20.863 5.46-12.699 0-16.327-1.82-18.14-1.82-1.815-5.462-1.815-3.641-7.257 1.82-5.443 5.46-3.629 5.46-12.7 0-9.07-14.562-7.256-12.742-1.813 1.82 5.442-1.82 12.698-9.102 18.14-7.282 5.443-9.102-9.07-5.461-12.698 2.549-2.54-5.643-3.81-12.379-3.447l1.093-6.53C8.202 18.145 29.136 1.092 53.894 1.092c4.369 0 8.737.544 12.925 1.633-1.093 5.08 2.548 7.256 2.548 9.07 0 1.815 0 10.885-3.64 10.885-3.642 0-12.743 5.442-9.103 10.885 3.641 5.442 5.461 12.698 9.102 10.884s6.554-12.88 9.102-12.698c6.372.362 6.372 9.433 10.012 11.247 2.549 1.27 13.29 0 20.025-2.902z" fill="#b5bdbf"/><path d="M53.702 107.585c-.182 0-.364 0-.546-.182-5.28-3.276-17.658-11.286-13.107-22.026 4.733-11.105.91-14.746-1.092-16.748l-.547-.546a3.964 3.964 0 00-1.456-.91c-1.638-1.093-4.005-2.367-2.366-7.282.728-2.366 1.82-3.459 2.73-4.369 1.457-1.456 2.549-2.73 2.549-8.01 0-2.912-1.639-4.187-3.095-4.915-2.548-1.092-6.007-.546-7.281.728-.729.546-.91 1.275-.547 2.003 2.003 5.825-1.82 13.47-9.466 19.296-3.64 2.73-5.825.91-6.553-.182-2.73-3.277-2.913-11.287 0-14.017l.182-.182c-.364-.728-5.097-1.82-11.104-1.639-.182 1.82-.182 3.46-.182 5.28 0 23.847 16.201 44.6 39.32 50.425.546.182.728.546.728 1.092-.182.546-.546.728-1.092.728C16.747 100.122 0 78.823 0 54.066c0-2.185.182-4.187.364-6.19v-.182c0-.182.182-.182.182-.364.182-.182.182-.182.364-.182h.182c3.459-.182 12.379 0 13.653 2.73.182.365.364 1.275-.546 2.185-2.184 2.185-2.002 9.103.182 11.469.364.364 1.456 1.82 4.187-.182 6.918-5.28 10.558-12.197 8.738-17.112-.546-1.456-.182-2.912 1.092-4.004 2.185-1.82 6.19-2.367 9.284-1.093 2.73 1.093 4.187 3.459 4.187 6.554 0 6.007-1.638 7.645-3.095 9.284-.91.91-1.82 1.82-2.366 3.823-1.092 3.458 0 4.004 1.638 5.096.546.365 1.274.729 1.82 1.275.183.182.365.182.365.364 2.184 2.002 6.917 6.371 1.638 18.75-3.459 8.192 4.187 14.563 12.197 19.66 28.398-.182 51.699-23.301 51.699-51.881 0-2.366-.182-4.915-.546-7.1 0-.546.364-.91.728-1.092.546 0 .91.364 1.092.728.364 2.367.546 4.915.546 7.464-.182 29.49-24.21 53.52-53.883 53.52zm.546-11.104c-1.638 0-3.277-.546-4.37-1.638-1.82-1.82-.545-5.097 1.64-7.1.727-.728 1.638-1.456 2.366-1.638 1.456-.546 2.366 0 2.73.364 2.185 2.184 4.187 6.19 1.82 8.556-.91.91-2.548 1.456-4.186 1.456zm1.092-8.92c-.364 0-1.274.364-2.366 1.456-.91.91-1.457 1.82-1.82 2.73-.365.911-.183 1.457.181 1.821 1.457 1.457 4.551 1.457 6.008 0 1.274-1.274-.182-4.369-1.82-6.007zm22.027-13.47c-1.82 0-3.459-.547-4.37-1.275-1.637-1.638-5.278-3.459-8.919-5.28-.91-.363-1.456-1.092-1.82-1.638-.364-.728-.364-1.456 0-2.184.91-1.638 3.64-2.73 6.189-1.456 1.092.546 2.002-.182 3.459-2.003 1.274-1.638 2.912-3.459 5.097-3.459.364 0 1.092-.182 2.002-.546 3.095-.91 8.374-2.366 11.469.728.91.91 1.274 1.82 1.274 2.73 0 1.64-1.274 2.731-2.73 4.188-1.457 1.274-3.095 2.912-3.642 4.915-.91 2.549-2.912 4.369-5.825 5.097-.546.182-1.456.182-2.184.182zM66.263 63.35c-1.093 0-1.82.546-2.185 1.092-.182.182-.182.364 0 .546.182.364.546.546.91.728 3.823 1.82 7.464 3.641 9.284 5.643.728.728 2.913 1.093 4.915.546 1.275-.364 3.641-1.274 4.551-3.822.91-2.55 2.73-4.37 4.187-5.644 1.092-1.092 2.185-2.184 2.185-2.912 0-.364-.182-.91-.728-1.274-2.367-2.367-6.736-1.093-9.649-.365-1.092.365-2.002.547-2.548.547-1.457 0-2.549 1.274-3.823 2.73-1.456 1.639-3.095 3.823-5.643 2.549-.364-.182-.91-.364-1.456-.364zM64.26 45.692c-2.549 0-4.187-3.277-5.825-6.735-.91-1.639-1.82-3.459-2.731-4.915-1.274-1.82-1.274-4.005-.182-6.008 2.002-3.64 7.464-6.371 10.012-6.371 1.274 0 2.73-2.549 2.73-10.012 0-.364-.363-.91-.727-1.639-.91-1.456-2.185-3.64-1.82-6.735-3.823-.91-7.828-1.456-11.833-1.456-23.848 0-44.6 16.201-50.425 39.32-.182.546-.546.728-1.092.728-.546-.182-.728-.546-.728-1.092C7.646 16.747 28.944 0 53.702 0c4.369 0 8.92.546 13.107 1.638.546.182.728.546.728 1.093-.728 2.912.546 4.733 1.456 6.371.546.91 1.092 1.638 1.092 2.549 0 7.827-1.456 11.832-4.55 11.832-2.185 0-6.918 2.367-8.557 5.461-.728 1.457-.728 2.731.182 4.187 1.093 1.639 2.003 3.46 2.913 5.097 2.184 4.37 3.459 6.19 5.097 5.462 1.638-.728 3.277-4.187 4.551-6.736 1.638-3.458 3.095-6.007 4.915-6.007 4.369.182 6.19 4.005 7.646 7.1.91 1.82 1.638 3.64 2.912 4.187 2.003 1.092 11.65 0 18.568-2.55-4.368-15.109-15.655-27.67-30.218-33.677-.546-.182-.728-.728-.546-1.274.182-.546.728-.728 1.274-.546 15.473 6.371 27.124 19.66 31.493 35.68v.546c0 .182-.182.182-.182.364l-.182.182c-6.736 2.912-17.84 4.369-20.753 2.912-1.82-.91-2.73-2.912-3.64-5.097-1.275-2.912-2.731-5.825-6.008-6.007-.728 0-2.366 3.277-3.277 5.097-1.638 3.277-3.276 6.554-5.46 7.646-.91 0-1.457.182-2.003.182z" fill="#51565f"/></svg>
